<?xml version="1.0" encoding="UTF-8" standalone="no"?>
<svg
   width="36"
   height="36"
   viewBox="0 0 36 36"
   version="1.1"
   id="svg10"
   sodipodi:docname="planning.svg"
   inkscape:version="1.2.2 (b0a8486541, 2022-12-01)"
   xmlns:inkscape="http://www.inkscape.org/namespaces/inkscape"
   xmlns:sodipodi="http://sodipodi.sourceforge.net/DTD/sodipodi-0.dtd"
   xmlns="http://www.w3.org/2000/svg"
   xmlns:svg="http://www.w3.org/2000/svg">
  <defs
     id="defs14" />
  <sodipodi:namedview
     id="namedview12"
     pagecolor="#ffffff"
     bordercolor="#000000"
     borderopacity="0.25"
     inkscape:showpageshadow="2"
     inkscape:pageopacity="0.0"
     inkscape:pagecheckerboard="0"
     inkscape:deskcolor="#d1d1d1"
     showgrid="false"
     inkscape:zoom="6.5555556"
     inkscape:cx="-12.050847"
     inkscape:cy="18"
     inkscape:window-width="950"
     inkscape:window-height="1125"
     inkscape:window-x="0"
     inkscape:window-y="0"
     inkscape:window-maximized="0"
     inkscape:current-layer="svg10" />
  <path
     fill="currentColor"
     d="M9 17.41V27h9.59l-2-2H11v-5.59z"
     class="clr-i-outline clr-i-outline-path-1"
     id="path2"
     style="fill:#b5b5cb;fill-opacity:1" />
  <path
     fill="currentColor"
     d="M34.87 32.29L32 29.38V32H4v-4.15h2v-1.6H4V19.6h2V18H4v-6.4h2V10H4V4.41l15.94 15.85v-2.82L3.71 1.29A1 1 0 0 0 2 2v31a1 1 0 0 0 1 1h31.16a1 1 0 0 0 .71-1.71"
     class="clr-i-outline clr-i-outline-path-2"
     id="path4"
     style="fill:#b5b5cb;fill-opacity:1" />
  <path
     fill="currentColor"
     d="M24 30h4a2 2 0 0 0 2-2V8.7l-2.3-4.23a2 2 0 0 0-1.76-1a2 2 0 0 0-1.76 1.08L22 8.72V28a2 2 0 0 0 2 2m0-20.8l1.94-3.77L28 9.21V24h-4Zm0 16.43h4v2.44h-4Z"
     class="clr-i-outline clr-i-outline-path-3"
     id="path6"
     style="fill:#b5b5cb;fill-opacity:1" />
  <path
     fill="none"
     d="M0 0h36v36H0z"
     id="path8" />
</svg>
