<?xml version="1.0" encoding="UTF-8" standalone="no"?>
<!-- Created with Inkscape (http://www.inkscape.org/) -->

<svg
   id="svg5"
   version="1.1"
   viewBox="0 0 297 210"
   height="210mm"
   width="297mm"
   sodipodi:docname="geospatial-search.svg"
   inkscape:version="1.2.2 (b0a8486541, 2022-12-01)"
   xmlns:inkscape="http://www.inkscape.org/namespaces/inkscape"
   xmlns:sodipodi="http://sodipodi.sourceforge.net/DTD/sodipodi-0.dtd"
   xmlns="http://www.w3.org/2000/svg"
   xmlns:svg="http://www.w3.org/2000/svg">
  <sodipodi:namedview
     id="namedview7"
     pagecolor="#ffffff"
     bordercolor="#666666"
     borderopacity="1.0"
     inkscape:pageshadow="2"
     inkscape:pageopacity="0.0"
     inkscape:pagecheckerboard="0"
     inkscape:document-units="mm"
     showgrid="false"
     inkscape:zoom="1.1673331"
     inkscape:cx="506.71054"
     inkscape:cy="419.76021"
     inkscape:window-width="1920"
     inkscape:window-height="1025"
     inkscape:window-x="0"
     inkscape:window-y="0"
     inkscape:window-maximized="1"
     inkscape:current-layer="g1940"
     inkscape:showpageshadow="2"
     inkscape:deskcolor="#d1d1d1" />
  <defs
     id="defs2">
    <marker
       style="overflow:visible;"
       id="Arrow2Lend"
       refX="0.0"
       refY="0.0"
       orient="auto"
       inkscape:stockid="Arrow2Lend"
       inkscape:isstock="true">
      <path
         transform="scale(1.1) rotate(180) translate(1,0)"
         d="M 8.7185878,4.0337352 L -2.2072895,0.016013256 L 8.7185884,-4.0017078 C 6.9730900,-1.6296469 6.9831476,1.6157441 8.7185878,4.0337352 z "
         style="stroke:context-stroke;fill-rule:evenodd;fill:context-stroke;stroke-width:0.62500000;stroke-linejoin:round;"
         id="path22185" />
    </marker>
    <inkscape:path-effect
       effect="fill_between_strokes"
       id="path-effect7566"
       is_visible="true"
       lpeversion="1"
       linkedpath=""
       secondpath=""
       reversesecond="false"
       join="true"
       close="true" />
    <inkscape:path-effect
       effect="slice"
       start_point="58.189709,2.9364435"
       end_point="-55.7262,2.9364435"
       center_point="1.2317543,2.9364435"
       id="path-effect6872"
       is_visible="true"
       lpeversion="1"
       allow_transforms="true" />
    <inkscape:path-effect
       effect="fill_between_many"
       method="originald"
       linkedpaths="#rect7400,0,1|#path1938,0,1|#g1936,0,1|#g1898,0,1"
       id="path-effect7402"
       join="true"
       close="true"
       autoreverse="true"
       is_visible="true"
       lpeversion="0"
       applied="false" />
    <marker
       style="overflow:visible"
       id="Arrow2Lend-9"
       refX="0"
       refY="0"
       orient="auto"
       inkscape:stockid="Arrow2Lend"
       inkscape:isstock="true">
      <path
         transform="matrix(-1.1,0,0,-1.1,-1.1,0)"
         d="M 8.7185878,4.0337352 -2.2072895,0.01601326 8.7185884,-4.0017078 c -1.7454984,2.3720609 -1.7354408,5.6174519 -6e-7,8.035443 z"
         style="fill:context-stroke;fill-rule:evenodd;stroke:context-stroke;stroke-width:0.625;stroke-linejoin:round"
         id="path22185-8" />
    </marker>
  </defs>
  <g
     inkscape:label="Réteg 1"
     inkscape:groupmode="layer"
     id="layer1">
    <g
       inkscape:label="WireframeSphere"
       transform="translate(63.139154,63.486406)"
       id="g1940"
       style="fill:none;fill-opacity:0;stroke:#280002;stroke-opacity:1">
      <g
         inkscape:label="Lines of Longitude"
         id="g1898"
         style="fill:none;fill-opacity:0;stroke:#280002;stroke-opacity:1"
         transform="translate(9.5298918,-1.278311)" />
      <g
         inkscape:label="Lines of Latitude"
         id="g1936"
         style="fill:none;fill-opacity:0;stroke:#280002;stroke-opacity:1"
         transform="translate(9.5298918,-1.278311)" />
      <path
         style="fill:#aa0000;fill-opacity:1;stroke:none;stroke-width:0.306366;stroke-miterlimit:4;stroke-dasharray:none;stroke-opacity:1"
         d="m 233.26182,204.16409 c -1.59131,0.0379 -0.75099,-0.2344 -0.99696,-0.0535 -1.39322,7.352 -3.51442,18.20405 -4.55497,25.60363 1.00506,1.12827 2.98906,0.7673 4.36897,1.20196 10.12281,1.35809 20.29723,2.52939 30.50803,2.90293 0.92952,-1.20087 0.29669,-3.12846 0.61323,-4.6015 0.26512,-7.37167 0.83401,-14.81836 0.86925,-22.1458 -9.89293,-0.22787 -21.06225,-1.89525 -30.92536,-3.18957 -0.36147,0.0534 0.48037,0.27739 0.11781,0.28189 z"
         id="path13300"
         transform="matrix(0.26458333,0,0,0.26458333,-63.139154,-63.486406)"
         sodipodi:nodetypes="scccccccss" />
      <path
         style="fill:#aa0000;fill-opacity:1;stroke:none;stroke-width:0.306366;stroke-miterlimit:4;stroke-dasharray:none;stroke-opacity:1"
         d="m 238.19946,177.81858 c -1.97061,8.33074 -4.00075,16.71684 -5.4335,25.16889 1.0207,1.07905 3.01609,0.6774 4.39079,1.1158 8.83256,1.15141 17.72249,2.23947 26.61246,2.57239 1.18453,-1.02636 0.25926,-3.0346 0.67269,-4.39271 0.25571,-7.22636 0.88389,-14.52311 1.08655,-21.69189 -9.00616,-0.69248 -18.04039,-1.48916 -26.99398,-2.8795 l -0.30886,0.0987 z"
         id="path13339"
         transform="matrix(0.26458333,0,0,0.26458333,-63.139154,-63.486406)" />
      <path
         style="fill:#aa0000;fill-opacity:1;stroke:none;stroke-width:0.306366;stroke-miterlimit:4;stroke-dasharray:none;stroke-opacity:1"
         d="m 296.1758,206.33053 c -5.59121,0.86109 -11.34767,0.66744 -17.00576,0.8949 -4.81366,0.17787 -9.71881,-0.16623 -14.47245,0.20256 -0.54236,8.69255 -0.67716,17.45182 -1.26401,26.1606 1.37565,0.99488 3.81566,0.13851 5.58738,0.42461 9.83606,-0.0765 19.73103,0.14702 29.51176,-1.02749 2.12306,-0.26145 0.25989,-3.3163 0.59696,-4.74179 -0.81248,-7.10814 -1.14459,-14.28965 -2.25918,-21.35358 -0.089,-0.30557 -0.34412,-0.60727 -0.6947,-0.55981 z"
         id="path13378"
         transform="matrix(0.26458333,0,0,0.26458333,-63.139154,-63.486406)" />
      <path
         style="fill:#aa0000;fill-opacity:1;stroke:none;stroke-width:0.306366;stroke-miterlimit:4;stroke-dasharray:none;stroke-opacity:1"
         d="m 298.76463,233.61898 c -11.56817,0.85452 -23.19044,0.76619 -34.79404,0.97462 -0.93227,1.07686 -0.39121,3.06974 -0.67117,4.50416 -0.29202,7.24859 -0.64324,14.49804 -0.74356,21.75205 1.42396,0.94339 3.8088,0.12194 5.58802,0.39585 11.14926,-0.0429 22.43354,0.16705 33.46958,-1.22027 -0.3461,-8.6629 -1.23538,-17.41798 -2.0737,-26.08787 -0.15732,-0.33528 -0.463,-0.34274 -0.77513,-0.31854 z"
         id="path13417"
         transform="matrix(0.26458333,0,0,0.26458333,-63.139154,-63.486406)" />
      <path
         style="fill:#aa0000;fill-opacity:1;stroke:none;stroke-width:0.306366;stroke-miterlimit:4;stroke-dasharray:none;stroke-opacity:1"
         d="m 228.20322,230.72492 c -1.41976,0.65949 -0.96965,2.83617 -1.44577,4.10299 -1.00489,7.18261 -2.76758,14.57408 -3.25311,21.81084 0.0269,0.32375 0.0758,0.42765 0.22124,0.53686 11.06656,1.51296 25.89579,3.66899 37.08624,3.68687 2.02883,0.0958 1.04891,-2.52372 1.349,-3.70356 0.25439,-7.48277 0.63204,-14.96389 0.78197,-22.4488 -1.44123,-0.9392 -3.57585,-0.35836 -5.28093,-0.7015 -9.84481,-0.67029 -19.73064,-1.54984 -29.45864,-3.2837 z"
         id="path13456"
         transform="matrix(0.26458333,0,0,0.26458333,-63.139154,-63.486406)"
         sodipodi:nodetypes="ccccccccc" />
      <path
         style="fill:#aa0000;fill-opacity:1;stroke:none;stroke-width:0.306366;stroke-miterlimit:4;stroke-dasharray:none;stroke-opacity:1"
         d="m 223.73103,257.70687 c -0.27838,0.0288 -0.50564,0.0958 -0.55383,0.30594 -0.81031,6.9353 -2.52166,18.05985 -2.88472,25.022 0.13063,0.52428 0.33605,0.66473 0.68616,0.80327 11.78465,1.72368 28.01833,3.53741 39.92437,3.99749 0.98441,-1.39297 0.21293,-3.80622 0.53003,-5.57719 0.0796,-6.86623 0.44693,-13.80807 0.58222,-20.61173 -9.5659,-0.62882 -19.23805,-1.29132 -28.79271,-2.64347 -3.17217,-0.3685 -6.30629,-1.03837 -9.49152,-1.29631 z"
         id="path13495"
         transform="matrix(0.26458333,0,0,0.26458333,-63.139154,-63.486406)"
         sodipodi:nodetypes="ccccccccc" />
      <path
         style="fill:#aa0000;fill-opacity:1;stroke:none;stroke-width:0.306366;stroke-miterlimit:4;stroke-dasharray:none;stroke-opacity:1"
         d="m 194.02473,222.58353 c -1.14152,1.26119 -1.07169,3.37595 -1.73833,4.94694 -1.78406,6.73063 -3.78993,13.43357 -5.2144,20.24158 1.45206,1.15406 3.64637,1.24388 5.36532,1.97907 9.38627,2.79987 20.55571,5.4442 30.18532,7.2098 0.42182,0.075 0.73807,0.0255 0.7368,-0.37723 0.9378,-7.39396 2.44298,-18.13163 3.48287,-25.49401 -1.11953,-1.32527 -3.32676,-0.94876 -4.84345,-1.51432 -9.45579,-1.80456 -18.71321,-4.43666 -27.97413,-6.99183 z"
         id="path13534"
         transform="matrix(0.26458333,0,0,0.26458333,-63.139154,-63.486406)"
         sodipodi:nodetypes="ccccccccc" />
      <path
         style="fill:#aa0000;fill-opacity:1;stroke:none;stroke-width:0.306366;stroke-miterlimit:4;stroke-dasharray:none;stroke-opacity:1"
         d="m 202.5923,196.76301 c -1.21386,1.11807 -1.27027,3.22965 -2.00703,4.7206 -2.17251,6.63235 -4.55244,13.2257 -6.33383,19.96889 -0.0505,0.23916 0.005,0.43355 0.32222,0.86428 9.121,2.53999 22.75718,6.18848 32.13503,7.52345 1.06927,-1.23766 0.7979,-3.34824 1.28871,-4.91358 1.11451,-7.01407 2.80685,-13.95471 3.67996,-20.9975 -0.97374,-1.06492 -2.84286,-0.40655 -4.10482,-1.00684 -8.33488,-1.62178 -16.49424,-3.9737 -24.69336,-6.14537 -0.0948,-0.0127 -0.19119,-0.021 -0.28688,-0.0139 z"
         id="path13573"
         transform="matrix(0.26458333,0,0,0.26458333,-63.139154,-63.486406)"
         sodipodi:nodetypes="sccccccccss" />
      <path
         style="fill:#ffcc00;fill-opacity:1;stroke:none;stroke-width:0.306366;stroke-miterlimit:4;stroke-dasharray:none;stroke-opacity:1"
         d="m 245.4397,152.5908 c -1.46007,0.58294 -1.25814,2.74635 -1.85478,3.9798 -1.65968,6.71822 -3.75291,13.37179 -4.95356,20.18155 0.89798,1.05713 2.81303,0.59078 4.06816,1.03794 7.44996,1.00951 14.93421,2.01595 22.46353,2.07524 0.96088,-1.10167 0.41626,-3.15992 0.73306,-4.63999 0.37381,-6.74655 0.89412,-13.56461 1.15347,-20.26482 -7.19072,-0.68349 -14.46827,-1.13008 -21.60988,-2.36972 z"
         id="path13766"
         transform="matrix(0.26458333,0,0,0.26458333,-63.139154,-63.486406)" />
      <path
         style="fill:#ffcc00;fill-opacity:1;stroke:none;stroke-width:0.306366;stroke-miterlimit:4;stroke-dasharray:none;stroke-opacity:1"
         d="m 292.5845,179.97108 c -8.66419,0.62437 -17.35276,0.45467 -26.03584,0.55285 -0.95204,1.12508 -0.44331,3.16089 -0.75107,4.63241 -0.36218,7.09982 -0.87874,14.19832 -0.97207,21.30781 1.42611,0.93506 3.81224,0.0649 5.59363,0.31345 8.68122,-0.20632 17.37656,-0.13372 26.04352,-0.72255 0.84974,-1.21175 -0.19823,-3.26037 -0.0728,-4.77172 -0.85838,-6.95458 -1.39592,-13.99217 -2.5521,-20.88542 -0.2607,-0.41725 -0.81666,-0.42818 -1.25325,-0.42683 z"
         id="path13805"
         transform="matrix(0.26458333,0,0,0.26458333,-63.139154,-63.486406)" />
      <path
         style="fill:#ffcc00;fill-opacity:1;stroke:none;stroke-width:0.306366;stroke-miterlimit:4;stroke-dasharray:none;stroke-opacity:1"
         d="m 327.27974,201.85581 c -9.76021,1.85226 -19.54939,3.48629 -29.42703,4.50385 -0.77878,1.33116 0.21617,3.41398 0.0942,5.01585 0.80201,7.18307 1.19752,14.50162 2.2439,21.60133 11.25445,-1.20232 22.59056,-2.73397 33.65731,-5.27518 1.35277,-0.55978 0.0999,-2.44083 0.15633,-3.49014 -1.54889,-7.45004 -3.45849,-14.8183 -5.28459,-22.20373 -0.25544,-0.60779 -0.98787,-0.11174 -1.44007,-0.15198 z"
         id="path13844"
         transform="matrix(0.26458333,0,0,0.26458333,-63.139154,-63.486406)" />
      <path
         style="fill:#ffcc00;fill-opacity:1;stroke:none;stroke-width:0.306366;stroke-miterlimit:4;stroke-dasharray:none;stroke-opacity:1"
         d="m 333.91773,228.35774 c -10.71553,2.07923 -21.50344,3.84287 -32.35403,4.99274 -1.91091,-0.0899 -1.01504,2.25351 -1.12629,3.39321 0.45045,7.64794 1.20806,15.27398 1.75957,22.91493 1.13576,0.84364 3.0868,-0.10719 4.53108,0.009 10.78217,-1.22971 22.48261,-2.86696 33.02895,-5.45068 0.18546,-0.064 0.26568,-0.19671 0.2252,-0.45841 -1.43306,-7.2563 -3.22204,-17.95102 -5.04744,-25.10429 -0.2357,-0.30946 -0.66393,-0.32327 -1.01704,-0.29637 z"
         id="path13883"
         transform="matrix(0.26458333,0,0,0.26458333,-63.139154,-63.486406)"
         sodipodi:nodetypes="cccccccccc" />
      <path
         style="fill:#ffcc00;fill-opacity:1;stroke:none;stroke-width:0.306366;stroke-miterlimit:4;stroke-dasharray:none;stroke-opacity:1"
         d="m 300.9165,260.79915 c -12.61153,0.89808 -25.253,0.83385 -37.88949,1.02717 -0.93264,1.08355 -0.43908,3.07168 -0.69293,4.51437 -0.18635,7.10431 -0.55519,14.29051 -0.38641,21.34757 7.87876,0.79979 15.92947,0.20164 23.87011,0.11281 5.79989,-0.31516 11.74951,-0.13653 17.43516,-1.17357 -0.19234,-8.47234 -0.81519,-17.03508 -1.51825,-25.51424 -0.15456,-0.3533 -0.50606,-0.32969 -0.81819,-0.31411 z"
         id="path13922"
         transform="matrix(0.26458333,0,0,0.26458333,-63.139154,-63.486406)" />
      <path
         style="fill:#ffcc00;fill-opacity:1;stroke:none;stroke-width:0.306366;stroke-miterlimit:4;stroke-dasharray:none;stroke-opacity:1"
         d="m 220.61848,284.1784 c -1.00771,0.99175 -0.41724,2.90253 -0.82072,4.21255 -0.57489,6.79789 -1.33719,13.60404 -1.57116,20.41615 1.80152,0.9752 4.19297,0.76244 6.20681,1.26531 11.90603,1.68528 23.88582,3.17369 35.92182,3.3785 0.94827,-1.22584 0.19691,-3.41212 0.46906,-5.01537 0.0238,-6.64173 0.4696,-13.35662 0.28828,-19.94902 -8.3025,-0.82272 -16.74699,-1.08696 -25.05055,-2.22726 -5.16831,-0.54597 -10.27653,-1.52697 -15.44354,-2.08086 z"
         id="path13961"
         transform="matrix(0.26458333,0,0,0.26458333,-63.139154,-63.486406)" />
      <path
         style="fill:#ffcc00;fill-opacity:1;stroke:none;stroke-width:0.306366;stroke-miterlimit:4;stroke-dasharray:none;stroke-opacity:1"
         d="m 187.14103,248.89865 c -1.11064,1.20735 -0.90599,3.34163 -1.49527,4.88061 -1.40302,6.65244 -3.06139,13.29029 -4.04336,20.009 2.4692,1.30001 5.47077,1.7392 8.1477,2.67381 9.67023,2.69267 19.78894,5.56733 29.687,7.18706 0.3352,0.0521 0.53096,-0.22088 0.70453,-0.55734 0.75718,-6.96967 1.89009,-18.37248 2.59199,-25.35326 -1.26546,-1.06276 -3.36717,-0.70111 -4.92878,-1.24628 -10.26405,-1.92261 -20.31026,-4.80963 -30.36301,-7.57904 -0.0992,-0.0147 -0.20049,-0.0269 -0.3008,-0.0146 z"
         id="path14000"
         transform="matrix(0.26458333,0,0,0.26458333,-63.139154,-63.486406)"
         sodipodi:nodetypes="sccccccccss" />
      <path
         style="fill:#ffcc00;fill-opacity:1;stroke:none;stroke-width:0.306366;stroke-miterlimit:4;stroke-dasharray:none;stroke-opacity:1"
         d="m 164.27726,210.31319 c -3.21198,6.70937 -6.73159,16.43034 -9.39267,23.39573 -0.12166,0.43413 0.11948,0.87611 0.44196,1.16015 9.85028,4.97041 20.22573,9.79543 30.82279,12.90126 0.29961,-0.0631 0.52751,-0.28065 0.71711,-0.62505 1.72578,-6.77106 4.564,-17.78383 6.38705,-24.52121 -0.12259,-0.35254 -0.20627,-0.55221 -0.48241,-0.7898 -7.97041,-2.86454 -20.55277,-7.77971 -28.14236,-11.52424 l -0.32422,0.003 z"
         id="path14039"
         transform="matrix(0.26458333,0,0,0.26458333,-63.139154,-63.486406)"
         sodipodi:nodetypes="cccccccccc" />
      <path
         style="fill:#ffcc00;fill-opacity:1;stroke:none;stroke-width:0.306366;stroke-miterlimit:4;stroke-dasharray:none;stroke-opacity:1"
         d="m 175.86556,185.63193 c -3.96842,7.5848 -7.79233,15.33488 -11.05128,23.26906 -0.1111,0.35492 -0.16102,0.68808 -0.003,0.94226 8.02377,3.85778 19.86316,8.94838 28.32188,11.71564 1.24943,-1.35497 1.27888,-3.63518 2.04978,-5.34162 2.01522,-6.61959 4.40092,-13.1134 6.47854,-19.70694 -1.10254,-1.21993 -3.21203,-1.12007 -4.66421,-1.9124 -7.09316,-2.58956 -14.00446,-5.62477 -20.78015,-8.96917 l -0.32422,0.003 z"
         id="path14078"
         transform="matrix(0.26458333,0,0,0.26458333,-63.139154,-63.486406)"
         sodipodi:nodetypes="cccccccccc" />
      <path
         style="fill:#ffcc00;fill-opacity:1;stroke:none;stroke-width:0.306366;stroke-miterlimit:4;stroke-dasharray:none;stroke-opacity:1"
         d="m 212.65568,171.54789 c -1.41059,0.3927 -1.29448,2.5092 -2.04753,3.57913 -2.57825,6.7106 -5.60997,13.28324 -7.64981,20.18135 -0.26404,1.50917 2.05389,1.18144 2.91907,1.75268 8.5175,2.47629 17.17248,4.62505 25.91394,6.0841 0.97445,-0.64061 0.50674,-2.35058 1.00002,-3.36325 1.50404,-7.34186 3.25452,-14.6299 4.79508,-21.95825 -1.85805,-1.10151 -4.42903,-0.9768 -6.5535,-1.62848 -6.15123,-1.2269 -12.16179,-3.07982 -18.22022,-4.64538 l -0.12159,-0.003 z"
         id="path14117"
         transform="matrix(0.26458333,0,0,0.26458333,-63.139154,-63.486406)" />
      <path
         style="fill:#ffcc00;fill-opacity:1;stroke:none;stroke-width:0.306366;stroke-miterlimit:4;stroke-dasharray:none;stroke-opacity:1"
         d="m 189.36192,161.93098 c -3.58511,5.15725 -6.44503,10.84706 -9.60933,16.28762 -1.12543,2.18144 -2.52163,4.26398 -3.40004,6.55461 0.1452,0.39159 0.36069,0.69866 0.88218,1.05701 6.48366,2.7627 17.69285,7.82524 24.50265,9.66434 1.25605,-1.30533 1.48209,-3.50701 2.32032,-5.14663 2.2321,-6.3675 5.63142,-12.30885 7.63334,-18.74696 -0.12943,-0.49847 -0.43268,-0.68721 -0.93377,-0.97831 -6.17977,-2.20002 -15.20293,-5.83814 -21.07111,-8.72018 l -0.32299,0.0284 z"
         id="path14156"
         transform="matrix(0.26458333,0,0,0.26458333,-63.139154,-63.486406)"
         sodipodi:nodetypes="ccccccccccc" />
      <path
         style="fill:#ffcc00;fill-opacity:1;stroke:none;stroke-width:0.306366;stroke-miterlimit:4;stroke-dasharray:none;stroke-opacity:1"
         d="m 223.44669,147.41504 c -1.6295,1.93032 -2.32492,4.65351 -3.57137,6.88382 -2.41293,5.40992 -5.1601,10.72865 -7.18798,16.27886 1.65413,1.28964 4.11237,1.34828 6.07714,2.09698 6.13679,1.60896 12.30211,3.22899 18.5636,4.23893 1.32176,-1.39876 1.2577,-3.74192 1.89768,-5.51475 1.46392,-6.36542 3.47828,-12.68393 4.7954,-19.03289 -6.88915,-1.21631 -13.75587,-3.1002 -20.54724,-4.95411 z"
         id="path14195"
         transform="matrix(0.26458333,0,0,0.26458333,-63.139154,-63.486406)" />
      <path
         style="fill:#ffcc00;fill-opacity:1;stroke:none;stroke-width:0.306366;stroke-miterlimit:4;stroke-dasharray:none;stroke-opacity:1"
         d="m 286.63488,154.58372 c -6.30857,0.44438 -12.71717,0.13219 -18.97166,0.57501 -0.65757,8.17434 -1.03024,16.40868 -1.57432,24.60654 1.37533,0.99485 3.8153,0.13828 5.58675,0.42429 7.28139,-0.0752 14.60663,-0.12204 21.84736,-0.82325 0.49959,-1.84193 -0.4508,-3.96574 -0.46476,-5.90054 -0.83742,-6.26505 -1.60161,-12.5415 -2.56736,-18.78833 -0.79895,-0.80041 -2.76268,0.0763 -3.85601,-0.0937 z"
         id="path14234"
         transform="matrix(0.26458333,0,0,0.26458333,-63.139154,-63.486406)" />
      <path
         style="fill:#ffcc00;fill-opacity:1;stroke:none;stroke-width:0.306366;stroke-miterlimit:4;stroke-dasharray:none;stroke-opacity:1"
         d="m 320.60629,175.89849 c -8.12637,1.35906 -16.22042,2.92603 -24.43872,3.73949 -1.38757,-0.21621 -2.08164,0.70977 -1.56388,1.98759 0.90598,7.95668 1.90378,15.89918 2.73037,23.86397 1.18227,0.79333 3.10641,-0.13845 4.57605,-0.0697 8.6224,-1.13656 17.32474,-2.16435 25.74009,-4.4038 1.32986,-0.67031 -0.22688,-2.48553 -0.15275,-3.53517 -2.01009,-7.15244 -3.89922,-14.36106 -6.29715,-21.3899 -0.12955,-0.20224 -0.3836,-0.20822 -0.59401,-0.19252 z"
         id="path14273"
         transform="matrix(0.26458333,0,0,0.26458333,-63.139154,-63.486406)" />
      <path
         style="fill:#ffcc00;fill-opacity:1;stroke:#000002;stroke-width:0.696303;stroke-miterlimit:4;stroke-dasharray:none;stroke-opacity:1;stroke-linejoin:round"
         d="m 154.91293,-38.158425 c -9.07208,1.692149 -40.50886,7.430776 -59.749332,9.806112 2.059997,18.091508 5.048002,40.178551 6.927442,58.288498 16.07546,-1.760942 42.87736,-5.532542 71.15835,-12.166869 -2.16444,-17.23192467 -12.15005,-42.185262 -18.33636,-55.927873 z"
         id="path14273-4"
         sodipodi:nodetypes="cccccc" />
      <path
         id="path14273-4-2"
         style="fill:none;fill-opacity:1;stroke:#930002;stroke-width:2;stroke-miterlimit:4;stroke-dasharray:none;stroke-opacity:1"
         d="m 136.52101,25.000181 c -0.0341,-0.09066 -0.0684,-0.181263 -0.10284,-0.271817 -0.27417,-0.695704 -0.55773,-1.388222 -0.85059,-2.077394 -0.2927,-0.689198 -0.59469,-1.374997 -0.90589,-2.057239 -0.31123,-0.682175 -0.63164,-1.36074 -0.96118,-2.035535 -0.32959,-0.674806 -0.66827,-1.345791 -1.01596,-2.012796 -0.34778,-0.667093 -0.70455,-1.330153 -1.07022,-1.989027 -0.36563,-0.658856 -0.74014,-1.313474 -1.12344,-1.963703 -0.38315,-0.650099 -0.77507,-1.295759 -1.17564,-1.936832 -0.40068,-0.641171 -0.80999,-1.2777017 -1.22784,-1.9094447 -0.41785,-0.631895 -0.84421,-1.258951 -1.27899,-1.881023 -0.4347,-0.621923 -0.87777,-1.238815 -1.32912,-1.850533 -0.45155,-0.6116086 -0.91133,-1.2179925 -1.37924,-1.8190105 -0.46771,-0.6011129 -0.94351,-1.1968156 -1.4273,-1.7869693 -0.48388,-0.59027547 -0.9757,-1.17495397 -1.47536,-1.75389907 -0.49954,-0.5787388 -1.00688,-1.15170243 -1.52188,-1.71875713 -0.5152,-0.5672066 -1.03803,-1.1284561 -1.56838,-1.6836178 -0.53018,-0.5551468 -1.06783,-1.1041655 -1.61282,-1.646928 -0.54516,-0.542744 -1.09762,-1.079187 -1.65726,-1.6092038 -0.55946,-0.5299873 -1.12605,-1.0535105 -1.69964,-1.5704476 -0.57359,-0.5168846 -1.15413,-1.0271432 -1.74149,-1.5306571 -0.58755,-0.503609 -1.18188,-1.00043 -1.78284,-1.490347 -0.60083,-0.48998 -1.20825,-0.97302 -1.82211,-1.449007 -0.61377,-0.475829 -1.23393,-0.944571 -1.86035,-1.406117 -0.62654,-0.461678 -1.25928,-0.916122 -1.89808,-1.363224 -0.63879,-0.447003 -1.28359,-0.886631 -1.93425,-1.318781 -0.65071,-0.432154 -1.30722,-0.856795 -1.96939,-1.273826 -0.661937,-0.417121 -1.228777,-0.816539 -1.886001,-1.243574 -0.401193,-0.294861 -1.734294,-1.199583 -1.947463,-1.305222 -0.127015,-0.02429 -0.480844,-0.04554 -0.535263,-0.04226"
         sodipodi:nodetypes="ccccssscscsccscccccccccscscccc" />
      <path
         id="path14273-4-2-4"
         style="fill:#ffa500;fill-opacity:1;stroke:none;stroke-width:0.696304;stroke-miterlimit:4;stroke-dasharray:none;stroke-opacity:1"
         d="m 136.5937,24.873135 a 96.417311,89.080826 0 0 0 -0.10284,-0.271817 96.417311,89.080826 0 0 0 -0.85059,-2.077395 96.417311,89.080826 0 0 0 -0.90589,-2.057239 96.417311,89.080826 0 0 0 -0.96118,-2.035535 96.417311,89.080826 0 0 0 -1.01596,-2.012796 96.417311,89.080826 0 0 0 -1.07022,-1.989027 96.417311,89.080826 0 0 0 -1.12344,-1.963703 96.417311,89.080826 0 0 0 -1.17564,-1.936832 96.417311,89.080826 0 0 0 -1.22784,-1.9094437 96.417311,89.080826 0 0 0 -1.27899,-1.881023 96.417311,89.080826 0 0 0 -1.32912,-1.850533 96.417311,89.080826 0 0 0 -1.37924,-1.8190098 96.417311,89.080826 0 0 0 -1.4273,-1.7869699 96.417311,89.080826 0 0 0 -1.47536,-1.75389897 96.417311,89.080826 0 0 0 -1.52188,-1.71875663 96.417311,89.080826 0 0 0 -1.56838,-1.6836181 96.417311,89.080826 0 0 0 -1.61282,-1.6469282 96.417311,89.080826 0 0 0 -1.65726,-1.609204 96.417311,89.080826 0 0 0 -1.69964,-1.570446 96.417311,89.080826 0 0 0 -1.74149,-1.5306577 96.417311,89.080826 0 0 0 -1.78284,-1.490349 96.417311,89.080826 0 0 0 -1.82211,-1.449006 96.417311,89.080826 0 0 0 -1.86035,-1.406118 96.417311,89.080826 0 0 0 -1.89808,-1.363223 96.417311,89.080826 0 0 0 -1.93425,-1.318781 96.417311,89.080826 0 0 0 -1.96941,-1.273826 96.417311,89.080826 0 0 0 -2.002454,-1.228349 96.417311,89.080826 0 0 0 -2.035535,-1.181323 96.417311,89.080826 0 0 0 -0.330729,-0.181385 c 1.968796,16.4844449 4.430098,35.167505 6.059588,50.86873 8.83506,-0.967811 20.92133,-2.547604 34.70125,-4.871537 z" />
      <path
         style="fill:#ffcc00;fill-opacity:1;stroke:none;stroke-width:0.306366;stroke-miterlimit:4;stroke-dasharray:none;stroke-opacity:1"
         d="m 339.53931,255.03572 c -9.80953,1.65175 -19.54138,3.67354 -29.4404,4.7485 -2.42504,0.54258 -5.20419,0.0613 -7.46624,1.14792 -0.5314,2.13657 0.21194,4.55298 0.13154,6.7811 0.50951,6.18418 0.35526,12.62329 1.34937,18.7475 0.0704,0.1599 0.14827,0.24404 0.37445,0.32656 12.07233,-1.20311 27.4584,-3.69034 39.32145,-6.21099 0.66182,-1.40479 -0.39056,-3.40384 -0.37869,-5.0282 -1.14242,-6.73792 -1.73998,-13.60587 -3.35256,-20.24581 -0.0983,-0.20599 -0.32363,-0.29203 -0.53892,-0.2666 z"
         id="path14312"
         transform="matrix(0.26458333,0,0,0.26458333,-63.139154,-63.486406)"
         sodipodi:nodetypes="sccccccccss" />
      <path
         style="fill:#ffcc00;fill-opacity:1;stroke:none;stroke-width:0.306366;stroke-miterlimit:4;stroke-dasharray:none;stroke-opacity:1"
         d="m 301.04822,287.49106 c -12.96591,1.21471 -26.03885,0.9229 -39.06548,1.00375 -0.9326,1.32085 -0.14192,3.58222 -0.40308,5.26377 0.0442,6.66609 -0.46263,13.40077 -0.28085,20.01403 13.00079,-0.0161 26.08183,-0.10699 39.09095,-0.8514 1.22573,-0.34903 3.15024,0.22459 3.99962,-0.88504 0.0635,-8.12421 -0.57015,-16.24602 -0.92648,-24.36209 -0.31494,-0.84171 -1.75098,-0.0418 -2.41468,-0.18302 z"
         id="path14351"
         transform="matrix(0.26458333,0,0,0.26458333,-63.139154,-63.486406)" />
      <path
         style="fill:#ffcc00;fill-opacity:1;stroke:none;stroke-width:0.306366;stroke-miterlimit:4;stroke-dasharray:none;stroke-opacity:1"
         d="m 181.65916,274.77954 c -0.1175,0.062 -0.20039,-0.11033 -0.30174,-0.0274 -0.78042,6.13106 -3.32981,17.7771 -3.42706,23.96446 0.0624,0.30049 0.19248,0.49169 0.45193,0.66926 11.0532,3.10607 27.65573,7.49011 38.95679,9.51273 0.17175,-0.16175 0.30361,-0.3252 0.36089,-0.6245 0.5548,-6.70351 1.46572,-17.24095 1.82714,-23.95681 -1.23195,-1.05376 -3.29009,-0.77805 -4.80639,-1.34567 -11.0767,-2.09007 -21.84199,-5.2352 -32.67006,-8.33942 -0.2041,0.01 -0.23958,0.09 -0.33612,0.1181 z"
         id="path14390"
         transform="matrix(0.26458333,0,0,0.26458333,-63.139154,-63.486406)"
         sodipodi:nodetypes="scccccccccs" />
      <path
         style="fill:#ffcc00;fill-opacity:1;stroke:none;stroke-width:0.306366;stroke-miterlimit:4;stroke-dasharray:none;stroke-opacity:1"
         d="m 154.89846,235.50994 c -1.41084,2.00274 -1.7161,4.71107 -2.61353,6.99769 -1.73073,5.61345 -3.29861,11.27541 -4.77363,16.96101 1.59542,1.58712 4.20876,2.17558 6.2213,3.34939 8.70435,4.1305 17.64699,7.86351 26.83946,10.73275 1.29101,-0.44022 0.64312,-2.36633 1.15383,-3.36459 1.35106,-7.15971 2.89084,-14.29483 4.45572,-21.41357 -0.67479,-1.20046 -2.63174,-1.08561 -3.78952,-1.73454 -9.35159,-3.19689 -18.35959,-7.30095 -27.26439,-11.54713 z"
         id="path14429"
         transform="matrix(0.26458333,0,0,0.26458333,-63.139154,-63.486406)" />
      <path
         id="path1938"
         style="fill:#800000;fill-opacity:0;stroke:#000002;stroke-width:0.32;stroke-miterlimit:4;stroke-dasharray:none;stroke-opacity:1"
         d="m 9.5298918,-54.194979 c -29.2250688,0 -52.9166678,23.691599 -52.9166678,52.916668 0,29.225069 23.691599,52.916668 52.9166678,52.916668 29.2250692,0 52.9166682,-23.691599 52.9166682,-52.916668 0,-29.225069 -23.691599,-52.916668 -52.9166682,-52.916668 z m 0,5.83971 c -3.9794794,0 -7.2054849,1.850808 -7.2054853,4.133896 -6e-7,2.283088 3.2260052,4.133897 7.2054853,4.133897 3.9794802,0 7.2054862,-1.850809 7.2054852,-4.133897 0,-2.283088 -3.226006,-4.133896 -7.2054852,-4.133896 z m 0,-2.852227 c -7.8848291,0 -14.276746,3.666701 -14.276746,8.189805 0,4.523104 6.3919169,8.189805 14.276746,8.189805 7.8848292,0 14.2767462,-3.666701 14.2767462,-8.189805 0,-4.523104 -6.391917,-8.189805 -14.2767462,-8.189805 z m 0,-1.922157 c -11.643299,0 -21.0820578,5.414297 -21.0820578,12.093171 0,6.678874 9.4387588,12.093171 21.0820578,12.093171 11.6432992,0 21.0820582,-5.414297 21.0820582,-12.093171 0,-6.678874 -9.438759,-12.093171 -21.0820582,-12.093171 z m 0,-0.956285 c -15.184876,0 -27.4946498,7.061044 -27.4946498,15.771284 0,8.71024 12.3097738,15.771284 27.4946498,15.771284 15.1848762,0 27.4946502,-7.061044 27.4946502,-15.771284 0,-8.71024 -12.309774,-15.771284 -27.4946502,-15.771284 z m -17.003501,2.696341 c -12.9521958,4.395177 -19.1793738,13.216562 -15.2073428,21.542634 3.97203,8.326072 17.1618868,14.099679 32.2108438,14.099679 15.0489562,0 28.2388132,-5.773606 32.2108442,-14.099678 3.972031,-8.326071 -2.255147,-17.147457 -15.207342,-21.542634 m -46.261455,6.01816 c -13.491798,8.953006 -12.355787,22.404436 2.581511,30.567493 14.9372968,8.1630571 38.41559,8.1630566 53.352886,-10e-7 14.937296,-8.163058 16.073306,-21.614487 2.581507,-30.567493 m -66.839539,6.839473 c -10.333973,10.425498 -6.179895,23.59893 9.866117,31.2874711 16.0460108,7.68854149 39.384928,7.68854169 55.43094,6e-7 16.046012,-7.6885407 20.200092,-20.8619717 9.86612,-31.2874707 m -81.364024,7.533399 c -7.625067,11.233432 -1.316996,24.0051172 15.447159,31.27521089 16.7641548,7.27009361 39.906394,7.27009391 56.67055,7e-7 C 54.629322,-6.9934456 60.937394,-19.76513 53.312328,-30.998563 m -92.075157,8.087008 c -5.185161,11.575574 2.724952,23.77998659 19.833889,30.6014558 17.1089368,6.8214692 39.80873,6.8214692 56.917667,-1e-6 C 55.097664,0.86842999 63.007776,-11.335983 57.822613,-22.911557 m -99.551205,8.489981 c -2.957237,11.5336843 6.115331,22.993935 23.20114,29.307125 17.0858088,6.31319 39.028883,6.313189 56.114691,-10e-7 17.085809,-6.3131906 26.158375,-17.7734417 23.201137,-29.307126 m -103.9912,8.7348051 c -0.932287,11.1522274 8.909638,21.6939619 25.609248,27.4301939 16.69961081,5.736232 37.547323,5.736232 54.246934,0 C 53.352968,16.00719 63.194894,5.4654555 62.262608,-5.6867717 M -43.202824,3.1301511 c 1.349405,16.1418869 24.558792,28.8316239 52.7327158,28.8316239 28.1739242,0 51.3833122,-12.689738 52.7327162,-28.8316244 m -103.9912,8.7348034 c 3.73977,14.585687 25.556436,25.39382 51.2584838,25.39382 25.7020472,0 47.5187132,-10.808132 51.2584842,-25.393819 m -99.551205,8.489978 c 5.663575,12.643606 25.534076,21.482985 48.2927208,21.482985 22.7586452,0 42.6291462,-8.839379 48.2927212,-21.482985 m -92.075158,8.087007 c 7.027776,10.353492 24.4124738,17.171967 43.7824368,17.171967 19.3699622,0 36.7546592,-6.818475 43.7824362,-17.171966 m -81.364026,7.533399 c 7.684404,7.752464 22.0343128,12.541061 37.5815898,12.541061 15.5472772,0 29.8971852,-4.788596 37.5815892,-12.54106 m -66.839542,6.839473 c 7.34611,4.874797 18.0244788,7.676521 29.2579528,7.676521 11.2334742,0 21.9118422,-2.801725 29.2579522,-7.676521 M -7.4736092,48.832975 C 3.01323,52.391562 16.046555,52.391561 26.533394,48.832974 M 14.240809,51.428245 C 17.912762,51.100045 18.78032,27.236458 16.178552,-1.8725689 13.576784,-30.981596 8.4909285,-54.313066 4.8189749,-53.984867 M 21.313564,50.309661 C 29.948904,48.337185 31.673501,23.641456 25.165559,-4.849794 18.657617,-33.341045 6.3815602,-54.838759 -2.2537802,-52.866283 M 28.981476,47.933574 C 41.615159,42.93996 43.148012,16.858925 32.405199,-10.320049 21.662386,-37.499022 2.7119908,-55.48381 -9.9216922,-50.490196 M 37.555787,43.607354 C 52.510668,34.269764 52.086374,6.6041552 36.6081,-18.185513 21.129826,-42.975181 -3.5411222,-55.501566 -18.496003,-46.163976 M 47.040898,36.045919 C 61.70663,21.306797 56.801306,-7.3522488 36.08455,-27.965852 15.367793,-48.579455 -13.315382,-53.341663 -27.981114,-38.602541 M 56.318968,23.439215 C 67.021066,3.1806629 54.748649,-24.308552 28.907756,-37.959665 3.0668623,-51.610778 -26.557086,-46.25439 -37.259184,-25.995837 M 62.057646,5.1255053 C 64.947776,-18.580984 43.773212,-40.665977 14.762934,-44.202707 c -29.010278,-3.53673 -54.870667,12.81409 -57.760796,36.5205797 M 60.595519,-15.151865 c -4.01184,-14.766737 -17.451987,-25.767481 -35.257667,-28.858357 -17.8056802,-3.090876 -37.271787,2.197693 -51.065627,13.873554 -13.79384,11.675861 -19.8198,27.9651737 -15.80796,42.731911 M 52.996862,-31.457712 C 44.791237,-43.27616 28.924169,-48.444694 11.372629,-45.016379 c -17.5515402,3.428315 -34.121055,14.932638 -43.46697,30.179401 -9.345915,15.24676299 -10.048362,31.91962 -1.842737,43.738068 M 43.382351,-41.949982 C 33.581112,-50.107897 18.072152,-49.894144 2.6975454,-41.389243 -12.677061,-32.884342 -25.581545,-17.380388 -31.154913,-0.71757197 -36.728281,15.945244 -34.123805,31.235445 -24.322567,39.39336 M 34.197182,-48.093891 C 24.92815,-52.977775 11.661653,-48.567672 -0.60494919,-36.524823 -12.871551,-24.481975 -22.274669,-6.6359763 -25.272239,10.290757 c -2.99757,16.926733 0.86581,30.362627 10.134841,35.246512 m 41.130074,-97.10624 C 18.697085,-53.957202 8.8178923,-46.578674 0.07649381,-32.212805 -8.6649042,-17.846936 -14.940482,1.3237554 -16.386289,18.077855 c -1.445808,16.7541 2.157807,28.546262 9.4533968,30.934494 M 18.590839,-53.413453 c -4.424849,-0.769027 -10.2405854,8.457265 -15.2564767,24.203421 -5.0158915,15.746156 -8.4699045,35.619959 -9.0609465,52.135141 -0.591042,16.515183 1.77068,27.162695 6.19552911,27.931722 M 11.650589,-54.152467 c -1.07976,-0.04331 -2.4817024,9.994432 -3.6777284,26.332099 C 6.7768346,-11.482701 5.9684295,8.6728135 5.8521637,25.053788 5.7358978,41.434763 6.3294348,51.552537 7.4091949,51.595845"
         sodipodi:nodetypes="ssssssssssssssssssssssssscsssccssccssccssccssccssccssccsccsccsccsccsccsccccsccsccsccsccsccsccsccssccssccssccssccssccssccssc" />
      <ellipse
         style="fill:none;fill-opacity:1;stroke:#c30002;stroke-width:0.5;stroke-miterlimit:4;stroke-dasharray:none;stroke-opacity:1"
         id="path11161"
         cx="2.531389"
         cy="-1.5007656"
         rx="18.578356"
         ry="17.164709" />
      <path
         style="fill:none;fill-opacity:1;stroke:#000002;stroke-width:0.696;stroke-miterlimit:4;stroke-dasharray:none;stroke-opacity:1;image-rendering:auto;stroke-linejoin:round"
         d="m 154.91293,-38.158425 c -9.07208,1.692149 -40.50886,7.430776 -59.749332,9.806112 2.059997,18.091508 5.048002,40.178551 6.927442,58.288498 16.07546,-1.760942 42.87736,-5.532542 71.15835,-12.166869 -2.16444,-17.23192467 -12.15005,-42.185262 -18.33636,-55.927873 z"
         id="path21844"
         sodipodi:nodetypes="cccccc" />
      <path
         style="display:inline;fill:none;fill-rule:evenodd;stroke:#000000;stroke-width:1;stroke-linecap:butt;stroke-linejoin:miter;stroke-miterlimit:4;stroke-dasharray:none;stroke-opacity:1;marker-end:url(#Arrow2Lend)"
         d="M 21.552912,-12.287295 92.378554,-1.9479327"
         id="path22162"
         inkscape:connector-type="polyline"
         inkscape:connector-curvature="0" />
      <ellipse
         style="fill:#800066;fill-opacity:1;stroke:none;stroke-width:1.47149;stroke-miterlimit:4;stroke-dasharray:none;stroke-opacity:1;paint-order:markers fill stroke"
         id="path22640"
         cx="107.78934"
         cy="-1.5721115"
         rx="1.6406401"
         ry="1.6251181" />
      <ellipse
         style="fill:#800066;fill-opacity:1;stroke:none;stroke-width:1.47149;stroke-miterlimit:4;stroke-dasharray:none;stroke-opacity:1;paint-order:markers fill stroke"
         id="path22640-0"
         cx="106.96097"
         cy="15.829823"
         rx="1.6406401"
         ry="1.6251181" />
      <ellipse
         style="fill:#800066;fill-opacity:1;stroke:none;stroke-width:1.47149;stroke-miterlimit:4;stroke-dasharray:none;stroke-opacity:1;paint-order:markers fill stroke"
         id="path22640-6"
         cx="123.41878"
         cy="7.9559588"
         rx="1.6406401"
         ry="1.6251181" />
      <ellipse
         style="fill:#800066;fill-opacity:1;stroke:none;stroke-width:1.47149;stroke-miterlimit:4;stroke-dasharray:none;stroke-opacity:1;paint-order:markers fill stroke"
         id="path22640-2"
         cx="125.3406"
         cy="23.195997"
         rx="1.6406401"
         ry="1.6251181" />
      <ellipse
         style="fill:#aa8800;fill-opacity:1;stroke:none;stroke-width:1.47149;stroke-miterlimit:4;stroke-dasharray:none;stroke-opacity:1;paint-order:markers fill stroke"
         id="path22640-9"
         cx="131.98376"
         cy="-17.82803"
         rx="1.6406401"
         ry="1.6251181" />
      <ellipse
         style="fill:#aa8800;fill-opacity:1;stroke:none;stroke-width:1.47149;stroke-miterlimit:4;stroke-dasharray:none;stroke-opacity:1;paint-order:markers fill stroke"
         id="path22640-9-3"
         cx="111.09579"
         cy="-17.466803"
         rx="1.6406401"
         ry="1.6251181" />
      <ellipse
         style="fill:#aa8800;fill-opacity:1;stroke:none;stroke-width:1.47149;stroke-miterlimit:4;stroke-dasharray:none;stroke-opacity:1;paint-order:markers fill stroke"
         id="path22640-90"
         cx="142.17276"
         cy="6.2846322"
         rx="1.6406401"
         ry="1.6251181" />
      <ellipse
         style="fill:#aa8800;fill-opacity:1;stroke:none;stroke-width:1.47149;stroke-miterlimit:4;stroke-dasharray:none;stroke-opacity:1;paint-order:markers fill stroke"
         id="path22640-8"
         cx="155.62186"
         cy="-4.1450419"
         rx="1.6406401"
         ry="1.6251181" />
      <ellipse
         style="fill:#aa8800;fill-opacity:1;stroke:none;stroke-width:1.47149;stroke-miterlimit:4;stroke-dasharray:none;stroke-opacity:1;paint-order:markers fill stroke"
         id="path22640-1"
         cx="152.44194"
         cy="-31.643545"
         rx="1.6406401"
         ry="1.6251181" />
      <path
         id="rect23338-33"
         style="fill:none;fill-opacity:1;stroke:#000002;stroke-width:0.5;paint-order:markers fill stroke"
         d="m 90.705461,61.300105 h 9.503129 v 9.075831 h -9.503129 l 1.349692,-2.11052 -1.915348,-2.759817 1.623935,-1.865227 z"
         sodipodi:nodetypes="cccccccc" />
      <path
         id="rect23338-33-2"
         style="fill:none;fill-opacity:1;stroke:#000002;stroke-width:0.5;stroke-opacity:1;paint-order:markers fill stroke"
         d="m 171.05141,61.300106 h 4.87014 v 9.075831 h -4.87014 l -0.34714,-2.616556 1.21673,-1.307696 -2.99827,-1.522243 z"
         sodipodi:nodetypes="cccccccc" />
      <rect
         style="fill:#ffcc00;fill-opacity:1;stroke:#000002;stroke-width:0.5;stroke-miterlimit:4;stroke-dasharray:none;stroke-opacity:1;paint-order:markers fill stroke"
         id="rect23338-10"
         width="9.5031433"
         height="9.0758305"
         x="100.20858"
         y="61.300106" />
      <rect
         style="fill:#aa0000;fill-opacity:1;stroke:#000002;stroke-width:0.5;stroke-miterlimit:4;stroke-dasharray:none;stroke-opacity:1;paint-order:markers fill stroke"
         id="rect23338-3"
         width="9.5031433"
         height="9.0758305"
         x="109.71175"
         y="61.300106" />
      <rect
         style="fill:#aa0000;fill-opacity:1;stroke:#000002;stroke-width:0.5;stroke-miterlimit:4;stroke-dasharray:none;stroke-opacity:1;paint-order:markers fill stroke"
         id="rect23338-4"
         width="9.5031433"
         height="9.0758305"
         x="119.21487"
         y="61.300106" />
      <rect
         style="fill:#aa0000;fill-opacity:1;stroke:#000002;stroke-width:0.5;stroke-miterlimit:4;stroke-dasharray:none;stroke-opacity:1;paint-order:markers fill stroke"
         id="rect23338-0"
         width="9.5031433"
         height="9.0758305"
         x="128.71803"
         y="61.300106" />
      <rect
         style="fill:#ffcc00;fill-opacity:1;stroke:#000002;stroke-width:0.5;stroke-miterlimit:4;stroke-dasharray:none;stroke-opacity:1;paint-order:markers fill stroke"
         id="rect23338-39"
         width="9.5031433"
         height="9.0758305"
         x="138.22119"
         y="61.300106" />
      <rect
         style="fill:none;fill-opacity:1;stroke:#000002;stroke-width:0.5;stroke-miterlimit:4;stroke-dasharray:none;stroke-opacity:1;paint-order:markers fill stroke"
         id="rect23338-19"
         width="9.5031433"
         height="9.0758305"
         x="147.72435"
         y="61.300106" />
      <path
         id="rect23338-9"
         style="fill:none;fill-opacity:1;stroke:#000002;stroke-width:0.5;paint-order:markers fill stroke"
         d="m 157.22749,61.300107 h 9.50315 l -3.245,3.773732 3.29398,1.435398 -0.79864,1.159849 0.74966,2.706852 h -9.50315 z"
         sodipodi:nodetypes="cccccccc" />
      <path
         id="rect23338-33-8"
         style="fill:none;fill-opacity:1;stroke:#000002;stroke-width:0.5;stroke-opacity:1;paint-order:markers fill stroke"
         d="m 18.848052,61.300103 h 9.503143 v 9.075831 h -9.503143 l 1.349692,-2.11052 -1.915348,-2.759817 1.623935,-1.865227 z"
         sodipodi:nodetypes="cccccccc" />
      <rect
         style="fill:#ffcc00;fill-opacity:1;stroke:#000002;stroke-width:0.5;stroke-miterlimit:4;stroke-dasharray:none;stroke-opacity:1;paint-order:markers fill stroke"
         id="rect23338-10-0"
         width="9.5031433"
         height="9.0758305"
         x="28.351191"
         y="61.300106" />
      <rect
         style="fill:#ffcc00;fill-opacity:1;stroke:#000002;stroke-width:0.5;stroke-miterlimit:4;stroke-dasharray:none;stroke-opacity:1;paint-order:markers fill stroke"
         id="rect23338-3-5"
         width="9.5031433"
         height="9.0758305"
         x="37.854336"
         y="61.300106" />
      <rect
         style="fill:#aa0000;fill-opacity:1;stroke:#000002;stroke-width:0.5;stroke-miterlimit:4;stroke-dasharray:none;stroke-opacity:1;paint-order:markers fill stroke"
         id="rect23338-4-6"
         width="9.5031433"
         height="9.0758305"
         x="47.357483"
         y="61.300106" />
      <rect
         style="fill:#ffcc00;fill-opacity:1;stroke:#000002;stroke-width:0.5;stroke-miterlimit:4;stroke-dasharray:none;stroke-opacity:1;paint-order:markers fill stroke"
         id="rect23338-0-6"
         width="9.5031433"
         height="9.0758305"
         x="56.860622"
         y="61.300106" />
      <rect
         style="fill:#ffcc00;fill-opacity:1;stroke:#000002;stroke-width:0.5;stroke-miterlimit:4;stroke-dasharray:none;stroke-opacity:1;paint-order:markers fill stroke"
         id="rect23338-39-4"
         width="9.5031433"
         height="9.0758305"
         x="66.363785"
         y="61.300106" />
      <path
         id="rect23338-9-0"
         style="fill:none;fill-opacity:1;stroke:#000002;stroke-width:0.5;stroke-opacity:1;paint-order:markers fill stroke"
         d="m 75.866928,61.300106 h 9.50315 l 1.492069,2.084047 -1.722365,2.3828 1.980798,2.640112 -1.750502,1.968872 h -9.50315 z"
         sodipodi:nodetypes="cccccccc" />
      <path
         id="rect23338-33-8-4"
         style="fill:none;fill-opacity:1;stroke:#000002;stroke-width:0.5;stroke-opacity:1;paint-order:markers fill stroke"
         d="m -33.517596,61.300097 h 9.503143 v 9.075831 h -9.503143 l 1.349692,-2.11052 -1.915348,-2.759817 1.623935,-1.865227 z"
         sodipodi:nodetypes="cccccccc" />
      <rect
         style="fill:#ffcc00;fill-opacity:1;stroke:#000002;stroke-width:0.5;stroke-miterlimit:4;stroke-dasharray:none;stroke-opacity:1;paint-order:markers fill stroke"
         id="rect23338-10-0-6"
         width="9.5031433"
         height="9.0758305"
         x="-24.01445"
         y="61.300102" />
      <rect
         style="fill:#ffcc00;fill-opacity:1;stroke:#000002;stroke-width:0.5;stroke-miterlimit:4;stroke-dasharray:none;stroke-opacity:1;paint-order:markers fill stroke"
         id="rect23338-0-6-7"
         width="9.5031433"
         height="9.0758305"
         x="-14.51131"
         y="61.300102" />
      <rect
         style="fill:#ffcc00;fill-opacity:1;stroke:#000002;stroke-width:0.5;stroke-miterlimit:4;stroke-dasharray:none;stroke-opacity:1;paint-order:markers fill stroke"
         id="rect23338-39-4-5"
         width="9.5031433"
         height="9.0758305"
         x="-5.0081568"
         y="61.300102" />
      <path
         id="rect23338-9-0-6"
         style="fill:none;fill-opacity:1;stroke:#000002;stroke-width:0.5;stroke-opacity:1;paint-order:markers fill stroke"
         d="m 4.4949946,61.3001 h 9.5031494 l 1.49206,2.084047 -1.72236,2.3828 1.9808,2.640112 -1.7505,1.968872 H 4.4949946 Z"
         sodipodi:nodetypes="cccccccc" />
      <path
         style="display:inline;fill:none;fill-opacity:0;fill-rule:evenodd;stroke:#000000;stroke-width:1;stroke-linecap:butt;stroke-linejoin:miter;stroke-miterlimit:4;stroke-dasharray:none;stroke-opacity:1;marker-end:url(#Arrow2Lend-9)"
         d="M 73.841478,62.938792 94.933477,25.114714"
         id="path22162-7"
         inkscape:connector-type="polyline"
         inkscape:connector-curvature="0" />
      <path
         id="rect23338-9-0-6-8"
         style="fill:none;fill-opacity:1;stroke:#000002;stroke-width:0.5;stroke-opacity:1;paint-order:markers fill stroke"
         d="m -42.00612,61.300102 h 3.491896 l 1.49206,2.084047 -1.72236,2.3828 1.9808,2.640112 -1.7505,1.968872 h -3.491896 z"
         sodipodi:nodetypes="cccccccc" />
    </g>
  </g>
</svg>
